<svg width="57" height="57" viewBox="0 0 57 57" fill="none" xmlns="http://www.w3.org/2000/svg">
<path d="M9.28585 56.5593V0H11.3963V56.5593H9.28585ZM0 56.5593V0H2.11042V56.5593H0ZM4.64293 56.5593V0H6.75335V56.5593H4.64293ZM54.8006 56.5593V0H56.911V56.5593H54.8006ZM45.5148 56.5593V0H47.6252V56.5593H45.5148ZM50.1577 56.5593V0H52.2681V56.5593H50.1577ZM31.0935 23.9181L29.8273 22.0187L42.9822 2.95459V6.683L31.0935 23.9181ZM33.9074 36.0882L13.9288 7.52717V3.93945L35.244 34.2592L33.9074 36.0882ZM33.9778 27.9983L32.7115 26.0989L42.9822 11.4666V15.1247L33.9778 27.9983ZM31.0935 40.2387L13.9288 15.7578V12.0294L32.3598 38.3393L31.0935 40.2387ZM36.7917 32.0081L35.5254 30.179L42.9822 19.5566V23.2146L36.7917 32.0081ZM28.2796 44.2485L13.9288 23.8478V20.1194L29.5459 42.4195L28.2796 44.2485Z" fill="#F1F1F1"/>
<path d="M20.0669 44.3372C20.9288 45.1992 22.1223 45.6301 23.6473 45.6301C24.3767 45.6301 25.106 45.5638 25.8354 45.4312C26.4292 45.2693 27.001 45.0854 27.5509 44.8795L25.6646 42.1848L25.1392 42.4475C24.7413 42.5801 24.2441 42.6464 23.6473 42.6464C22.4538 42.6464 21.8571 42.3149 21.8571 41.6519C21.8571 41.3203 22.0892 40.9888 22.5533 40.6573C23.0837 40.2595 23.5684 39.9575 23.9663 39.7586L22.2356 37.2863C21.1748 37.7504 20.3321 38.3698 19.6691 39.1655C19.0723 39.9611 18.7739 40.7236 18.7739 41.453C18.7739 42.5138 19.2049 43.4752 20.0669 44.3372Z" fill="url(#paint0_linear_160_59)"/>
<path d="M24.0451 52.0948C20.1995 52.0948 17.2489 51.1002 15.1935 49.1111C13.1381 47.0557 12.1104 44.503 12.1104 41.453C12.1104 37.541 14.1989 34.3915 18.3761 32.0046L18.489 31.934L20.1941 34.3697L20.1663 34.3915C18.9729 35.0546 17.8457 36.0491 16.7848 37.3752C15.7239 38.635 15.1935 39.9943 15.1935 41.453C15.1935 43.4421 15.9229 45.1991 17.3816 46.7242C18.9066 48.2492 21.1278 49.0117 24.0451 49.0117C24.9734 49.0117 26.0674 48.8459 27.3272 48.5144C28.2764 48.2646 29.0375 48.0336 29.6102 47.8214L31.4484 50.4473C30.5424 50.8201 29.4339 51.1703 28.1229 51.4981C26.5316 51.8959 25.1723 52.0948 24.0451 52.0948Z" fill="url(#paint1_linear_160_59)"/>
<path d="M28.4212 19.3736C28.8854 18.9094 29.5816 18.6774 30.5098 18.6774C30.698 18.6774 30.8753 18.6869 31.0417 18.706L32.845 16.075C32.1598 15.8208 31.3814 15.6937 30.5098 15.6937C28.8522 15.6937 27.493 16.191 26.4321 17.1855C25.5947 17.9706 25.0878 18.9623 24.9114 20.1605L30.4512 27.4402C29.0393 25.2348 27.8245 22.3653 27.8245 21.1638C27.8245 20.4345 28.0234 19.8377 28.4212 19.3736Z" fill="url(#paint2_linear_160_59)"/>
<path d="M18.6745 21.1638C18.6745 17.8486 19.6691 15.0969 21.6582 12.9089C23.7136 10.6545 26.6642 9.52737 30.5098 9.52737C32.6553 9.52737 34.0635 9.66543 36.0794 10.5798C36.2382 10.6518 36.4825 10.7718 36.4825 10.7718L34.7287 13.3287C34.7287 13.3287 34.4652 13.1633 34.2892 13.07C32.9709 12.3713 31.9559 12.5111 30.5098 12.5111C27.4598 12.5111 25.2055 13.3399 23.7468 14.9975C22.3544 16.5888 21.6582 18.6442 21.6582 21.1638C21.6582 22.0824 21.7816 23.0716 22.0284 24.1312L18.7739 21.7821C18.7106 21.5864 18.6745 21.3819 18.6745 21.1638Z" fill="url(#paint3_linear_160_59)"/>
<path d="M13.9282 7.52754L44.793 51.9271V47.2946L13.9282 3.93983V7.52754Z" fill="#F1F1F1"/>
<path d="M13.9282 15.7582L40.1604 53.2507L44.793 55.2361L13.9282 12.0298V15.7582Z" fill="#F1F1F1"/>
<path d="M13.9282 23.8481L32.2189 49.9418L34.2043 48.6182L13.9282 20.1197V23.8481Z" fill="#F1F1F1"/>
<path d="M37.5132 32.2759L39.3034 34.7623C41.0273 33.4363 41.9887 31.9113 42.1876 30.1873L39.005 30.0879C39.005 30.7509 38.5078 31.4803 37.5132 32.2759Z" fill="#93009C"/>
<path d="M40.0684 35.8875L41.8586 38.3739C42.4301 37.9658 42.967 37.5388 43.4693 37.0929C43.697 36.8908 43.9176 36.6848 44.1311 36.475V28.6272C44.0994 29.8966 43.4274 31.6712 42.8075 32.735C42.1876 33.7989 41.5895 34.7467 40.0684 35.8875Z" fill="#93009C"/>
<defs>
<linearGradient id="paint0_linear_160_59" x1="24.0949" y1="9.52737" x2="24.0949" y2="52.0948" gradientUnits="userSpaceOnUse">
<stop stop-color="#93009C"/>
<stop offset="1" stop-color="#6B0078"/>
</linearGradient>
<linearGradient id="paint1_linear_160_59" x1="24.0949" y1="9.52737" x2="24.0949" y2="52.0948" gradientUnits="userSpaceOnUse">
<stop stop-color="#93009C"/>
<stop offset="1" stop-color="#6B0078"/>
</linearGradient>
<linearGradient id="paint2_linear_160_59" x1="24.0949" y1="9.52737" x2="24.0949" y2="52.0948" gradientUnits="userSpaceOnUse">
<stop stop-color="#93009C"/>
<stop offset="1" stop-color="#6B0078"/>
</linearGradient>
<linearGradient id="paint3_linear_160_59" x1="24.0949" y1="9.52737" x2="24.0949" y2="52.0948" gradientUnits="userSpaceOnUse">
<stop stop-color="#93009C"/>
<stop offset="1" stop-color="#6B0078"/>
</linearGradient>
</defs>
</svg>
