<svg width="345" height="259" viewBox="0 0 345 259" fill="none" xmlns="http://www.w3.org/2000/svg">
<g filter="url(#filter0_d_160_74)">
<g clip-path="url(#clip0_160_74)">
<path d="M38 45H297V217.667H38V45Z" fill="white"/>
<path d="M77.7095 97.4118L101.654 61.495L107.64 65.4858L83.6956 101.403L77.7095 97.4118ZM86.6887 103.398L110.633 67.4811L116.619 71.4719L92.6748 107.389L86.6887 103.398ZM95.6679 109.384L119.612 73.4673L125.599 77.458L101.654 113.375L95.6679 109.384Z" fill="black"/>
<path d="M209.404 185.209L233.349 149.292L239.335 153.282L215.39 189.199L209.404 185.209ZM218.384 191.195L242.328 155.278L248.314 159.269L224.37 195.185L218.384 191.195ZM227.363 197.181L251.307 161.264L257.293 165.255L233.349 201.172L227.363 197.181Z" fill="black"/>
<path d="M218.384 165.255L248.314 185.209L218.384 165.255Z" fill="black"/>
<path d="M218.384 165.255L248.314 185.209" stroke="white" stroke-width="3.59722"/>
<path d="M131.584 107.389C137.934 97.863 147.809 91.2501 159.035 89.0049C170.261 86.7597 181.92 89.066 191.445 95.4165C200.971 101.767 207.584 111.641 209.829 122.868C212.074 134.094 209.768 145.752 203.418 155.278L131.584 107.389Z" fill="#CD2E3A"/>
<path d="M131.584 107.389C125.234 116.914 122.927 128.573 125.173 139.799C127.418 151.025 134.031 160.9 143.556 167.25C153.082 173.601 164.741 175.907 175.967 173.662C187.193 171.416 197.067 164.804 203.418 155.278C206.593 150.515 207.746 144.686 206.624 139.073C205.501 133.46 202.195 128.522 197.432 125.347C192.669 122.172 186.84 121.019 181.227 122.141C175.614 123.264 170.676 126.57 167.501 131.333L131.584 107.389Z" fill="#0047A0"/>
<path d="M167.501 131.333C174.114 121.415 171.433 108.015 161.515 101.403C151.597 94.7905 138.197 97.4706 131.585 107.389C124.972 117.307 127.653 130.707 137.571 137.319C147.489 143.932 160.889 141.251 167.501 131.333Z" fill="#CD2E3A"/>
<path d="M101.652 201.172L77.7073 165.255L83.6934 161.264L107.638 197.181L101.652 201.172ZM110.631 195.185L86.6865 159.269L92.6726 155.278L116.617 191.195L110.631 195.185ZM119.61 189.199L95.6657 153.282L101.652 149.292L125.596 185.209L119.61 189.199Z" fill="black"/>
<path d="M233.347 113.375L209.402 77.4581L215.388 73.4673L239.333 109.384L233.347 113.375ZM242.326 107.389L218.381 71.4719L224.367 67.4812L248.312 103.398L242.326 107.389ZM251.305 101.403L227.361 65.4858L233.347 61.495L257.291 97.4119L251.305 101.403Z" fill="black"/>
<path d="M97.1641 178.225L106.143 172.239L97.1641 178.225ZM218.383 97.4118L228.859 90.428L218.383 97.4118ZM237.838 84.4419L246.818 78.4557L237.838 84.4419Z" fill="black"/>
<path d="M97.1641 178.225L106.143 172.239M218.383 97.4118L228.859 90.428M237.838 84.4419L246.818 78.4557" stroke="white" stroke-width="3.59722"/>
</g>
</g>
<defs>
<filter id="filter0_d_160_74" x="0" y="0" width="345" height="258.667" filterUnits="userSpaceOnUse" color-interpolation-filters="sRGB">
<feFlood flood-opacity="0" result="BackgroundImageFix"/>
<feColorMatrix in="SourceAlpha" type="matrix" values="0 0 0 0 0 0 0 0 0 0 0 0 0 0 0 0 0 0 127 0" result="hardAlpha"/>
<feOffset dx="5" dy="-2"/>
<feGaussianBlur stdDeviation="21.5"/>
<feComposite in2="hardAlpha" operator="out"/>
<feColorMatrix type="matrix" values="0 0 0 0 0.534167 0 0 0 0 0.534167 0 0 0 0 0.534167 0 0 0 0.25 0"/>
<feBlend mode="normal" in2="BackgroundImageFix" result="effect1_dropShadow_160_74"/>
<feBlend mode="normal" in="SourceGraphic" in2="effect1_dropShadow_160_74" result="shape"/>
</filter>
<clipPath id="clip0_160_74">
<rect x="38" y="45" width="259" height="172.667" rx="15" fill="white"/>
</clipPath>
</defs>
</svg>
